<svg id="组_1" data-name="组 1" xmlns="http://www.w3.org/2000/svg" width="1265.34" height="294" viewBox="0 0 1265.34 294">
  <metadata><?xpacket begin="﻿" id="W5M0MpCehiHzreSzNTczkc9d"?>
<x:xmpmeta xmlns:x="adobe:ns:meta/" x:xmptk="Adobe XMP Core 5.6-c138 79.159824, 2016/09/14-01:09:01        ">
   <rdf:RDF xmlns:rdf="http://www.w3.org/1999/02/22-rdf-syntax-ns#">
      <rdf:Description rdf:about=""/>
   </rdf:RDF>
</x:xmpmeta>
                           
<?xpacket end="w"?></metadata>
<defs>
    <style>
      .cls-1 {
        fill: #2affb6;
        opacity: 0.8;
      }

      .cls-2 {
        fill: #2b71ff;
      }

      .cls-3, .cls-4 {
        fill: #fff;
      }

      .cls-3, .cls-5 {
        fill-rule: evenodd;
      }

      .cls-5 {
        fill: #3c414b;
      }
    </style>
  </defs>
  <rect id="圆角矩形_1_拷贝" data-name="圆角矩形 1 拷贝" class="cls-1" width="270.375" height="261.375" rx="36" ry="36"/>
  <rect id="圆角矩形_1" data-name="圆角矩形 1" class="cls-2" x="32.625" y="32.625" width="270.375" height="261.375" rx="36" ry="36"/>
  <path id="形状_1" data-name="形状 1" class="cls-3" d="M110.774,153.533L74.936,254.8H140.1"/>
  <circle id="椭圆_1" data-name="椭圆 1" class="cls-4" cx="105.89" cy="96.375" r="24.422"/>
  <path id="形状_1_拷贝" data-name="形状 1 拷贝" class="cls-3" d="M194.018,98l-73.47,156.8H254.129"/>
  <path id="webp2jpg" class="cls-5" d="M476.343,108.148L456.2,187.694l-0.416-79.546H418.189l-25.338,79.546,4.569-79.546H356.712l6.439,110.907h46.315l21.6-74.353,1.454,74.353h45.692l36.761-110.907h-38.63Zm143.306,27.623q0-14.121-11.735-22.95T575.2,103.994q-23.053,0-37.9,10.9a63.272,63.272,0,0,0-21.6,27.311,86.159,86.159,0,0,0-6.75,33.023q0,22.017,12.981,35t38.734,12.981q25.128,0,46.731-15.785L593.48,183.955a94.771,94.771,0,0,1-14.539,7.685,34.383,34.383,0,0,1-12.877,2.492q-15.372,0-16.823-14.746,29.909-2.7,50.158-12.669t20.25-30.946h0ZM550.9,156.332q2.283-11.628,7.269-19t13.085-7.373q8.1,0,8.1,7.684,0,6.027-6.023,11.839T550.9,156.332h0Zm152.651-52.338a40.826,40.826,0,0,0-15.992,3.427,38.725,38.725,0,0,0-13.5,9.242l7.892-56.284-40.707,4.154L620.478,212.824A120.346,120.346,0,0,0,669.7,223.209q37.8,0,52.857-22.742t15.058-53.481q0-20.766-8.516-31.88t-25.546-11.112h0Zm-16.823,29.492a8.417,8.417,0,0,1,7.062,3.22q2.491,3.222,2.492,12.15a85.99,85.99,0,0,1-5.4,30.946q-5.4,14.126-16.615,14.123a29.358,29.358,0,0,1-10.592-2.077l6.646-47.354q7.476-11.005,16.407-11.008h0ZM734.291,266.2l40.292-4.154,6.231-41.746q7.268,2.907,19.315,2.908,20.766,0,33.958-11.631a65.672,65.672,0,0,0,19-29.076,111.682,111.682,0,0,0,5.816-35.516q0-20.766-8.619-31.88t-25.858-11.112a39.194,39.194,0,0,0-15.888,3.739,50.934,50.934,0,0,0-16.1,11.838l-0.208-11.423H756.306Zm61.269-72.276a29.362,29.362,0,0,1-10.592-2.077l6.646-47.562q7.476-10.8,16.407-10.8a8.417,8.417,0,0,1,7.062,3.22q2.492,3.222,2.492,12.15a85.99,85.99,0,0,1-5.4,30.946q-5.4,14.126-16.615,14.123h0ZM921.627,74.5a68.93,68.93,0,0,0-29.8,6.231,79.277,79.277,0,0,0-24.2,18.069l21.185,20.354a67.162,67.162,0,0,1,12.98-10.593,23.8,23.8,0,0,1,12.15-3.323q6.023,0,9.554,3.323a11.686,11.686,0,0,1,3.531,8.931,28.81,28.81,0,0,1-4.569,15.162q-4.572,7.476-17.966,20.146T861.6,190.6l-3.531,28.454h94.915l8.516-30.738-53.585.208q26.375-18.483,39.773-32.193t17.342-23.469a53.3,53.3,0,0,0,3.946-20.146,36.348,36.348,0,0,0-5.3-19.419q-5.295-8.616-15.992-13.708T921.627,74.5h0Zm32.4,191.7q24.3-7.686,39.149-21.807t18.586-41.123l13.3-95.123h-40.3l-13.5,97.2q-1.869,13.084-8.1,20.146t-18.692,11.838Zm53.8-175.291a25.279,25.279,0,0,0,18.17-7.061,23.448,23.448,0,0,0,7.37-17.654,18.643,18.643,0,0,0-5.5-13.915q-5.5-5.4-14.64-5.4a25.279,25.279,0,0,0-18.176,7.062,23.43,23.43,0,0,0-7.373,17.654,18.635,18.635,0,0,0,5.5,13.915q5.5,5.4,14.646,5.4h0ZM1019.86,266.2l40.29-4.154,6.23-41.746q7.275,2.907,19.32,2.908,20.76,0,33.96-11.631a65.691,65.691,0,0,0,19-29.076,111.815,111.815,0,0,0,5.81-35.516q0-20.766-8.61-31.88T1110,103.994a39.2,39.2,0,0,0-15.89,3.739,50.925,50.925,0,0,0-16.1,11.838l-0.2-11.423h-35.93Zm61.27-72.276a29.368,29.368,0,0,1-10.59-2.077l6.64-47.562q7.485-10.8,16.41-10.8a8.416,8.416,0,0,1,7.06,3.22q2.49,3.222,2.49,12.15a85.969,85.969,0,0,1-5.4,30.946q-5.4,14.126-16.61,14.123h0Zm135.2-89.931q-23.25,0-38.42,11.112A63.959,63.959,0,0,0,1156,142.521a84.924,84.924,0,0,0-6.75,32.711q0,19.94,9.45,31.881t27.31,11.942q16.41,0,28.04-13.084l-1.45,8.723q-1.875,12.461-7.79,16.927t-15.27,4.465q-13.92,0-30.32-8.723l-13.09,25.754a86,86,0,0,0,21.4,9.553,77.9,77.9,0,0,0,22.22,3.531q20.145,0,32.92-6.231a45.069,45.069,0,0,0,19.94-19.107q7.155-12.88,10.07-33.854l12.67-89.93a86.612,86.612,0,0,0-23.89-9.866,103.435,103.435,0,0,0-25.13-3.219h0Zm-1.45,28.246a34.291,34.291,0,0,1,8.52,1.246l-6.65,43.616q-8.1,12.047-16.62,12.046-9.555,0-9.55-15.37a76.259,76.259,0,0,1,2.39-18.484,42.015,42.015,0,0,1,7.79-16.3,17.219,17.219,0,0,1,14.12-6.75h0Z"/>
</svg>
